<svg width="16" height="16" viewBox="0 0 16 16" fill="none" xmlns="http://www.w3.org/2000/svg">
<path d="M2 15.788C1.44772 15.788 1 15.3403 1 14.788V5.78584C1 5.4723 1.14705 5.17691 1.39723 4.98792L7.39723 0.455348C7.75391 0.185903 8.24609 0.185903 8.60277 0.455349L14.6028 4.98792C14.8529 5.17691 15 5.4723 15 5.78584V14.788C15 15.3403 14.5523 15.788 14 15.788H10.808C10.2557 15.788 9.808 15.3403 9.808 14.788V10.404C9.808 9.85172 9.36028 9.404 8.808 9.404H7.192C6.63972 9.404 6.192 9.85172 6.192 10.404V14.788C6.192 15.3403 5.74429 15.788 5.192 15.788H2Z" fill="white"/>
</svg>
